Walking06_kinetics.mot
version=1
nRows=16
nColumns=19
inDegrees=yes
endheader
time	1_ground_force_vx	1_ground_force_vy	1_ground_force_vz	1_ground_force_px	1_ground_force_py	1_ground_force_pz	2_ground_force_vx	2_ground_force_vy	2_ground_force_vz	2_ground_force_px	2_ground_force_py	2_ground_force_pz	1_ground_torque_x	1_ground_torque_y	1_ground_torque_z	2_ground_torque_x	2_ground_torque_y	2_ground_torque_z
  0.24500000	  0.00000000	  0.00000000	  0.00000000	  0.30048871	 -0.00042294	 -0.20058549	-19.25225940	486.11540070	-35.62039820	 -0.33204689	  0.00251183	 -0.00779474	  0.00000000	  0.00000000	  0.00000000	  0.00228928	  1.75666646	  0.00005804
  0.24600000	  0.00000000	  0.00000000	  0.00000000	  0.30048871	 -0.00042294	 -0.20058549	-18.96896310	484.25427616	-35.47200772	 -0.33124923	  0.00251079	 -0.00766189	  0.00000000	  0.00000000	  0.00000000	  0.00227051	  1.74225993	  0.00005756
  0.24700000	  0.00000000	  0.00000000	  0.00000000	  0.30048871	 -0.00042294	 -0.20058549	-18.69370876	482.41603672	-35.31605797	 -0.33045562	  0.00250975	 -0.00752620	  0.00000000	  0.00000000	  0.00000000	  0.00225201	  1.72806734	  0.00005709
  0.24800000	  0.00000000	  0.00000000	  0.00000000	  0.30048871	 -0.00042294	 -0.20058549	-18.42494303	480.60797226	-35.15336589	 -0.32967201	  0.00250873	 -0.00738436	  0.00000000	  0.00000000	  0.00000000	  0.00223388	  1.71415677	  0.00005664
  0.24900000	  0.00000000	  0.00000000	  0.00000000	  0.30048871	 -0.00042294	 -0.20058549	-18.16190586	478.83970800	-34.98565022	 -0.32890380	  0.00250772	 -0.00723514	  0.00000000	  0.00000000	  0.00000000	  0.00221640	  1.70073907	  0.00005619
  0.25000000	  0.00000000	  0.00000000	  0.00000000	  0.30048871	 -0.00042294	 -0.20058549	-17.90428442	477.11868514	-34.81567768	 -0.32815478	  0.00250674	 -0.00708022	  0.00000000	  0.00000000	  0.00000000	  0.00219996	  1.68812904	  0.00005578
  0.25100000	  0.00000000	  0.00000000	  0.00000000	  0.30048871	 -0.00042294	 -0.20058549	-17.65189549	475.44621374	-34.64674497	 -0.32742541	  0.00250578	 -0.00692381	  0.00000000	  0.00000000	  0.00000000	  0.00218483	  1.67651564	  0.00005539
  0.25200000	  0.00000000	  0.00000000	  0.00000000	  0.30048871	 -0.00042294	 -0.20058549	-17.40448554	473.81686729	-34.48200071	 -0.32671200	  0.00250485	 -0.00677146	  0.00000000	  0.00000000	  0.00000000	  0.00217089	  1.66582314	  0.00005504
  0.25300000	  0.00000000	  0.00000000	  0.00000000	  0.30048871	 -0.00042294	 -0.20058549	-17.16170940	472.22270730	-34.32399128	 -0.32600785	  0.00250393	 -0.00662856	  0.00000000	  0.00000000	  0.00000000	  0.00215789	  1.65584583	  0.00005471
  0.25400000	  0.00000000	  0.00000000	  0.00000000	  0.30048871	 -0.00042294	 -0.20058549	-16.92323264	470.65899684	-34.17441422	 -0.32530530	  0.00250301	 -0.00649897	  0.00000000	  0.00000000	  0.00000000	  0.00214569	  1.64648611	  0.00005440
  0.25500000	  0.00000000	  0.00000000	  0.00000000	  0.30048871	 -0.00042294	 -0.20058549	-16.68887596	469.12676149	-34.03394877	 -0.32459772	  0.00250208	 -0.00638459	  0.00000000	  0.00000000	  0.00000000	  0.00213441	  1.63782605	  0.00005411
  0.25600000	  0.00000000	  0.00000000	  0.00000000	  0.30048871	 -0.00042294	 -0.20058549	-16.45879000	467.63164219	-33.90215295	 -0.32388074	  0.00250114	 -0.00628567	  0.00000000	  0.00000000	  0.00000000	  0.00212423	  1.63001602	  0.00005386
  0.25700000	  0.00000000	  0.00000000	  0.00000000	  0.30048871	 -0.00042294	 -0.20058549	-16.23370435	466.18197671	-33.77753718	 -0.32315262	  0.00250019	 -0.00620122	  0.00000000	  0.00000000	  0.00000000	  0.00211535	  1.62319933	  0.00005363
  0.25800000	  0.00000000	  0.00000000	  0.00000000	  0.30048871	 -0.00042294	 -0.20058549	-16.01521115	464.78818358	-33.65788150	 -0.32241368	  0.00249922	 -0.00612897	  0.00000000	  0.00000000	  0.00000000	  0.00210807	  1.61761186	  0.00005345
  0.25900000	  0.00000000	  0.00000000	  0.00000000	  0.30048871	 -0.00042294	 -0.20058549	-15.80577663	463.46265423	-33.54066886	 -0.32166529	  0.00249825	 -0.00606544	  0.00000000	  0.00000000	  0.00000000	  0.00210299	  1.61371834	  0.00005332
  0.26000000	  0.00000000	  0.00000000	  0.00000000	  0.30048871	 -0.00042294	 -0.20058549	-15.60808793	462.21850862	-33.42346135	 -0.32090934	  0.00249726	 -0.00600646	  0.00000000	  0.00000000	  0.00000000	  0.00210097	  1.61216633	  0.00005327
